<?xml version="1.0" encoding="UTF-8"?>
<svg id="Layer_1" data-name="Layer 1" xmlns="http://www.w3.org/2000/svg" viewBox="0 0 146.42319 147.44256">
  <defs>
    <style>
      .cls-1 {
        fill: #fcfbf0;
      }

      .cls-2 {
        fill: #b59921;
      }
    </style>
  </defs>
  <path class="cls-2" d="m135.8267,53.89713c10.4331,12.93776,13.09483,31.28851,8.28226,47.19682s-16.54589,29.27629-30.92201,37.61667c-23.19299,13.45553-56.74836,12.0928-73.01099-9.22604-3.66745-4.8077-6.31648-10.36478-10.29943-14.91454-5.38681-6.15342-12.88055-10.09323-18.62928-15.90998C2.13187,89.43683-1.9111,75.48452.86089,62.81668s12.27257-23.65654,24.40693-28.22988c12.01511-4.5284,26.14534-3.1352,36.94729-10.0769,9.80197-6.29908,15.23304-18.5557,26.0234-22.95175,13.24077-5.39436,28.49562,3.99204,35.81989,16.27097,7.32426,12.27893,9.2904,26.90673,13.72828,40.49799"/>
  <g>
    <path class="cls-1" d="m46.77553,88.82787l-2.26465-5.23828c-.24512-.60059-1.33691-3.41016-1.96387-5.12891,0,1.85449,0,5.32031-.05469,6.65723l-.13672,3.70996h-4.14648l1.09082-18.4707h3.87402l4.25684,10.64062c.24512.6543.70898,1.93652,1.11816,3.30078.40918-1.33691.87305-2.61914,1.14551-3.30078l4.25684-10.64062h3.79199l1.0918,18.4707h-4.22949l-.16309-3.70996c-.05469-1.36426-.05469-4.8291-.02734-6.65723-.5459,1.55469-1.52832,4.01074-1.91016,4.88379l-2.31934,5.4834h-3.41016Z"/>
    <path class="cls-1" d="m75.006,70.35716v3.30176h-7.25684v3.95605h6.0293l-.51855,3.24609h-5.51074v4.66602h7.63867v3.30078h-12.14062v-18.4707h11.75879Z"/>
    <path class="cls-1" d="m94.26283,70.35716v18.4707h-3.84668l-5.26562-7.9668c-.46387-.68164-1.6377-2.64648-2.12793-3.4375.08105,1.11914.24512,3.27441.24512,4.31055l.08203,7.09375h-4.50195v-18.4707h3.68359l5.31934,7.91211c.65527.98242,1.69238,2.70117,2.20996,3.54688-.05371-1.14551-.19043-3.24707-.21777-4.39258l-.08203-7.06641h4.50195Z"/>
    <path class="cls-1" d="m103.1515,81.35228c0,3.16504,1.47266,4.1748,3.38281,4.1748,1.93652,0,3.02832-1.41895,3.02832-4.1748v-10.99512h4.50098v11.24121c0,3.90137-2.07324,7.39355-7.88379,7.39355-5.56641,0-7.50293-3.51953-7.50293-7.39355v-11.24121h4.47461v10.99512Z"/>
  </g>
</svg>