<?xml version="1.0" encoding="UTF-8"?><svg id="Layer_1" xmlns="http://www.w3.org/2000/svg" viewBox="0 0 535.0019 33.81"><defs><style>.cls-1{fill:none;stroke:#000;stroke-miterlimit:10;stroke-width:7px;}</style></defs><path class="cls-1" d="m532.495,31.3676l-22.9546-23.5617c-5.5933-5.7412-14.746-5.7412-20.3393,0l-12.785,13.1231c-5.5933,5.7412-14.746,5.7412-20.3393,0l-12.785-13.1231c-5.5933-5.7412-14.746-5.7412-20.3393,0l-12.785,13.1231c-5.5933,5.7412-14.746,5.7412-20.3393,0l-12.785-13.1231c-5.5933-5.7412-14.746-5.7412-20.3393,0l-12.785,13.1231c-5.5933,5.7412-14.746,5.7412-20.3393,0l-12.785-13.1231c-5.5933-5.7412-14.746-5.7412-20.3393,0l-13.7892,14.1539c-5.0228,5.1556-13.3081,5.1556-18.3308,0l-13.7892-14.1539c-5.5933-5.7412-14.746-5.7412-20.3393,0l-12.785,13.1231c-5.5933,5.7412-14.746,5.7412-20.3393,0l-12.785-13.1231c-5.5933-5.7412-14.746-5.7412-20.3393,0l-12.785,13.1231c-5.5933,5.7412-14.746,5.7412-20.3393,0l-12.785-13.1231c-5.5933-5.7412-14.746-5.7412-20.3393,0l-12.785,13.1231c-5.5933,5.7412-14.746,5.7412-20.3393,0l-12.785-13.1231c-5.5933-5.7412-14.746-5.7412-20.3393,0L2.507,31.3676"/></svg>