<?xml version="1.0" encoding="UTF-8"?><svg id="Layer_1" xmlns="http://www.w3.org/2000/svg" viewBox="0 0 346.4258 83.3199"><defs><style>.cls-1{fill:#bbefe5;}</style></defs><path class="cls-1" d="m333.749,23.2055c-2.9004,0-5.6211-1.1533-7.6621-3.248l-12.7852-13.123c-3.3701-3.459-7.8721-5.3633-12.6777-5.3633s-9.3057,1.9053-12.6748,5.3633l-13.79,14.1543c-1.7646,1.8115-4.1289,2.8086-6.6582,2.8086s-4.8936-.9971-6.6582-2.8086l-13.7891-14.1543c-3.3701-3.459-7.8721-5.3633-12.6768-5.3633s-9.3066,1.9043-12.6768,5.3633l-12.7852,13.123c-2.041,2.0947-4.7617,3.248-7.6631,3.248s-5.6211-1.1533-7.6621-3.248l-12.7852-13.123c-3.3701-3.459-7.8721-5.3633-12.6777-5.3633s-9.3057,1.9053-12.6748,5.3633l-12.7852,13.123c-2.041,2.0947-4.7627,3.248-7.6631,3.248s-5.6221-1.1533-7.6631-3.248l-12.7842-13.123c-3.3701-3.459-7.8721-5.3633-12.6768-5.3633s-9.3066,1.9043-12.6768,5.3633l-12.7852,13.123c-2.041,2.0947-4.7617,3.248-7.6621,3.248s-5.6221-1.1533-7.6631-3.248l-12.7852-13.123c-3.3691-3.459-7.8711-5.3633-12.6768-5.3633s-9.3066,1.9043-12.6758,5.3633L0,30.3959v52.924h346.4258V30.3959s-9.7754-7.1904-12.6768-7.1904Z"/><path d="m5.0137,33.8096L0,28.9248,22.9551,5.3633c3.3691-3.459,7.8711-5.3633,12.6758-5.3633s9.3076,1.9043,12.6768,5.3633l12.7852,13.123c2.041,2.0947,4.7617,3.248,7.6631,3.248s5.6211-1.1533,7.6621-3.248l12.7852-13.123c3.3701-3.459,7.8721-5.3633,12.6768-5.3633s9.3066,1.9043,12.6768,5.3633l12.7842,13.123c2.041,2.0947,4.7627,3.248,7.6631,3.248s5.6221-1.1533,7.6631-3.248l12.7852-13.123c3.3691-3.458,7.8701-5.3633,12.6748-5.3633s9.3076,1.9043,12.6777,5.3633l12.7852,13.123c2.041,2.0947,4.7617,3.248,7.6621,3.248s5.6221-1.1533,7.6631-3.248l12.7852-13.123c3.3701-3.459,7.8721-5.3633,12.6768-5.3633s9.3066,1.9043,12.6768,5.3633l13.7891,14.1543c1.7646,1.8115,4.1289,2.8086,6.6582,2.8086s4.8936-.9971,6.6582-2.8086l13.79-14.1543c3.3691-3.458,7.8701-5.3633,12.6748-5.3633s9.3076,1.9043,12.6777,5.3633l12.7852,13.123c2.041,2.0947,4.7617,3.248,7.6621,3.248s5.6221-1.1533,7.6631-3.248l5.0137,4.8848c-3.3691,3.459-7.8711,5.3633-12.6768,5.3633s-9.3066-1.9043-12.6758-5.3633l-12.7852-13.123c-2.041-2.0947-4.7627-3.248-7.6631-3.248s-5.6211,1.1533-7.6621,3.248l-13.79,14.1543c-3.0938,3.1758-7.2383,4.9238-11.6719,4.9238s-8.5781-1.748-11.6719-4.9238l-13.7891-14.1543c-2.041-2.0947-4.7627-3.248-7.6631-3.248s-5.6221,1.1533-7.6631,3.248l-12.7852,13.123c-3.3691,3.459-7.8711,5.3633-12.6768,5.3633s-9.3066-1.9043-12.6758-5.3633l-12.7852-13.123c-2.041-2.0947-4.7627-3.248-7.6631-3.248s-5.6211,1.1533-7.6621,3.248l-12.7852,13.123c-3.3701,3.459-7.8721,5.3633-12.6768,5.3633s-9.3066-1.9043-12.6768-5.3633l-12.7842-13.123c-2.041-2.0947-4.7627-3.248-7.6631-3.248s-5.6221,1.1533-7.6631,3.248l-12.7852,13.123c-3.3691,3.459-7.8711,5.3633-12.6758,5.3633s-9.3076-1.9043-12.6768-5.3633l-12.7852-13.123c-2.041-2.0947-4.7617-3.248-7.6631-3.248s-5.6211,1.1533-7.6621,3.248L5.0137,33.8096Z"/></svg>